<?xml version="1.0" encoding="utf-8"?>
<!-- Generator: Adobe Illustrator 26.1.0, SVG Export Plug-In . SVG Version: 6.00 Build 0)  -->
<svg version="1.1" xmlns="http://www.w3.org/2000/svg" xmlns:xlink="http://www.w3.org/1999/xlink" x="0px" y="0px"
	 viewBox="0 0 60 60" style="enable-background:new 0 0 60 60;" xml:space="preserve">
<style type="text/css">
	.st0{display:none;}
	.st1{display:inline;fill:url(#SVGID_1_);}
	.st2{fill:url(#SVGID_00000065777363533398342220000017194311401375543450_);}
</style>
<g id="Layer_1" class="st0">
	<radialGradient id="SVGID_1_" cx="54.8092" cy="54.6992" r="43.7776" gradientUnits="userSpaceOnUse">
		<stop  offset="0.6215" style="stop-color:#593EF7"/>
		<stop  offset="1" style="stop-color:#2E00BF"/>
	</radialGradient>
	<path class="st1" d="M0,1.29c4.42-0.78,10.74-1.21,16.76-1.21c9.33,0,15.35,1.47,19.57,4.76c3.41,2.6,5.32,6.58,5.32,11.08
		c0,7.71-5.62,12.81-12.75,14.89v0.26c5.22,1.56,8.33,5.71,9.94,11.78c2.21,8.14,16.81,7.77,18.22,10.02h-9.03
		c-1.1-1.65-15.61-0.67-17.52-7.94c-2.01-8.05-5.62-11.08-13.55-11.34H8.73v25.28H0V1.29z M8.73,27.87h8.93
		c9.33,0,15.25-4.42,15.25-11.08c0-7.53-6.32-10.82-15.56-10.91c-4.21,0-7.23,0.35-8.63,0.69V27.87z"/>
</g>
<g id="Layer_1_copy">
	
		<radialGradient id="SVGID_00000093144415379717526300000009710577638036451713_" cx="56.6762" cy="55.5947" r="44.1952" gradientUnits="userSpaceOnUse">
		<stop  offset="0.6215" style="stop-color:#593EF7"/>
		<stop  offset="1" style="stop-color:#2E00BF"/>
	</radialGradient>
	<path style="fill:url(#SVGID_00000093144415379717526300000009710577638036451713_);" d="M0,1.29C4.42,0.51,13.98,1,20,1
		c22,0,29,10.5,29,15c0,7.71-7,14-19,17c0,0,6,1,8.84,9.85C41.22,50.3,49,44,52,39l7,4c-5,22-19,19-25,10
		c-4.6-6.91-9.11-19.15-17.04-19.41h-1.71c-1.45,0-2.69,1.06-2.92,2.49L8.73,58.87H0L5,41c2-12,1-16,0.16-20.31L0,1.29z
		 M12.28,25.47c0.26,1.4,1.48,2.41,2.9,2.41h2.48C27,27.87,41,23.67,41,17C41,9.47,26.59,5.97,17.36,5.88
		c-4.21,0-7.23,0.35-8.63,0.69L12.28,25.47z"/>
</g>
</svg>
